<svg xmlns="http://www.w3.org/2000/svg" viewBox="0 0 100 100">
  <!-- Background -->
  <circle cx="50" cy="50" r="48" fill="#f8f8f8" stroke="#333" stroke-width="2" />
  
  <!-- Stylized face -->
  <g fill="#333">
    <!-- Hair -->
    <path d="M30 25 Q40 15 50 20 Q60 15 70 25 Q75 35 70 45 Q65 50 70 55 Q75 60 70 65 Q65 70 60 65 Q55 60 50 65 Q45 60 40 65 Q35 70 30 65 Q25 60 30 55 Q35 50 30 45 Q25 35 30 25" />
    
    <!-- Face -->
    <ellipse cx="50" cy="55" rx="20" ry="25" fill="#f8f8f8" />
    
    <!-- Eyes -->
    <ellipse cx="40" cy="50" rx="3" ry="2" />
    <ellipse cx="60" cy="50" rx="3" ry="2" />
    
    <!-- Eyebrows -->
    <path d="M35 45 Q40 42 45 45" fill="none" stroke="#333" stroke-width="2" />
    <path d="M55 45 Q60 42 65 45" fill="none" stroke="#333" stroke-width="2" />
    
    <!-- Nose -->
    <path d="M50 52 Q48 58 50 60" fill="none" stroke="#333" stroke-width="1.5" />
    
    <!-- Mouth -->
    <path d="M40 65 Q50 70 60 65" fill="none" stroke="#333" stroke-width="1.5" />
    
    <!-- Glasses -->
    <rect x="35" y="48" width="10" height="6" rx="2" ry="2" fill="none" stroke="#333" stroke-width="1" />
    <rect x="55" y="48" width="10" height="6" rx="2" ry="2" fill="none" stroke="#333" stroke-width="1" />
    <path d="M45 51 L55 51" fill="none" stroke="#333" stroke-width="1" />
  </g>
</svg> 